<svg id="Camada_1" data-name="Camada 1" xmlns="http://www.w3.org/2000/svg" viewBox="0 0 447.13 164.18"><path d="M93.75,97.54a24.35,24.35,0,0,1-6.83,8.51,30.91,30.91,0,0,1-10.45,5.29,46.51,46.51,0,0,1-13.28,1.8A55,55,0,0,1,45,110.43,37.32,37.32,0,0,1,30.68,101L40,91.86a27.1,27.1,0,0,0,10.71,6.9,40.51,40.51,0,0,0,12.76,1.87q9,0,14-3.67a12.17,12.17,0,0,0,5-10.39q0-6.31-3.61-9.54a11.54,11.54,0,0,0-3.87-2.45,33.17,33.17,0,0,0-6.19-1.42L57.9,71.61q-11.22-1.55-17.41-7.35-6.7-6.32-6.71-17.54a27.38,27.38,0,0,1,2.13-10.9A24.68,24.68,0,0,1,42,27.25a26.67,26.67,0,0,1,9.61-5.55,39.84,39.84,0,0,1,12.9-1.93,46.08,46.08,0,0,1,15.86,2.45,37.35,37.35,0,0,1,12.64,8L84.08,39a22.51,22.51,0,0,0-9.22-5.61,37.44,37.44,0,0,0-10.77-1.48Q56,31.89,51.65,36a13.46,13.46,0,0,0-4.33,10.26,12.68,12.68,0,0,0,.84,4.7,10.31,10.31,0,0,0,2.65,3.81q3.6,3.22,10.31,4.25l10.45,1.55a46.56,46.56,0,0,1,10.32,2.65,24.82,24.82,0,0,1,6.83,4.19,20.89,20.89,0,0,1,5.61,8.12A29.07,29.07,0,0,1,96.2,86.19,25.52,25.52,0,0,1,93.75,97.54Z"/><path d="M341.66,112.37v-5.94a22.5,22.5,0,0,1-7.48,5.16,27.08,27.08,0,0,1-9.93,1.55,31.6,31.6,0,0,1-10.38-1.48,18.83,18.83,0,0,1-7.16-4.45q-5.16-5.42-5.16-14.06a17.78,17.78,0,0,1,5.61-13.54q5.61-5.3,17-5.29H341.4V69.68q0-6.2-3.29-9.22t-11-3a21,21,0,0,0-8.52,1.41,16,16,0,0,0-5.8,4.9l-8.64-8.12a24.86,24.86,0,0,1,10-7.42,39,39,0,0,1,13.48-2q27,0,27,22.44v43.73Zm-.26-28.89H326.05q-5.81,0-8.77,2.45a8.53,8.53,0,0,0-3,7,8.4,8.4,0,0,0,2.9,6.9q2.89,2.38,9.09,2.39a35.69,35.69,0,0,0,6.71-.58,10.77,10.77,0,0,0,5.54-3.16q2.83-2.84,2.84-9.67Z"/><path d="M413.32,87.22a49,49,0,0,1-1,7.54,32.63,32.63,0,0,1-2.26,6.9,19.5,19.5,0,0,1-3.93,5.68,19,19,0,0,1-6.84,4.25,25.54,25.54,0,0,1-9,1.55,25.83,25.83,0,0,1-9.42-1.61,19.79,19.79,0,0,1-7.74-5.87v33.15H360V47h12.89v7a20,20,0,0,1,7.81-6.12,25.47,25.47,0,0,1,9.48-1.62,26.13,26.13,0,0,1,9.09,1.55,18.79,18.79,0,0,1,6.9,4.26,19.45,19.45,0,0,1,3.93,5.67,32.87,32.87,0,0,1,2.26,6.84,47.63,47.63,0,0,1,1,7.48q.19,3.87.19,7.61T413.32,87.22ZM399.9,71.29a21.54,21.54,0,0,0-1.87-6.9,11.22,11.22,0,0,0-4.12-4.71,15.46,15.46,0,0,0-14.25,0,11.82,11.82,0,0,0-4.13,4.71,20.56,20.56,0,0,0-1.94,6.9,77.14,77.14,0,0,0,0,16.64,21.19,21.19,0,0,0,1.94,7,11.73,11.73,0,0,0,4.13,4.77,15.46,15.46,0,0,0,14.25,0A11.14,11.14,0,0,0,398,94.89a22.21,22.21,0,0,0,1.87-7,75.47,75.47,0,0,0,0-16.64Z"/><path d="M125.1,125.4a21.18,21.18,0,0,1-4.77,8.12,14.43,14.43,0,0,1-6.19,3.74,25.21,25.21,0,0,1-7.22,1h-5.29V126.56H105c2.75,0,4.78-.5,6.07-1.49s2.4-2.82,3.35-5.49L118,109.37,95.18,47h13.93l15.61,46,15.22-46H154Z"/><path d="M206.61,101.41a19.16,19.16,0,0,1-5.68,6.51,24.86,24.86,0,0,1-8.64,3.93,43.45,43.45,0,0,1-10.83,1.29,56,56,0,0,1-14.84-1.87A28.89,28.89,0,0,1,154,103.73l8.64-8.64a19.52,19.52,0,0,0,9,5.48,37.49,37.49,0,0,0,9.87,1.35,21.57,21.57,0,0,0,10.19-2.19,7.9,7.9,0,0,0,2.12-12.19c-1.33-1.33-3.59-2.13-6.77-2.38l-10.45-.91q-9.27-.77-14.31-5.09t-5-13a17.92,17.92,0,0,1,7.22-14.77,24.93,24.93,0,0,1,7.81-3.87,32.85,32.85,0,0,1,9.6-1.35,52.12,52.12,0,0,1,13.55,1.67,26.24,26.24,0,0,1,10.7,5.68l-8.25,8.38a18.6,18.6,0,0,0-7.29-3.67,34.87,34.87,0,0,0-8.84-1.1c-4,0-6.92.77-8.89,2.32a7.34,7.34,0,0,0-3,6.06,7,7,0,0,0,1.87,5q1.86,2,7.16,2.51l10.31.91q9.3.77,14.39,5.22t5.09,13.22A19,19,0,0,1,206.61,101.41Z"/><rect x="213.35" y="21.5" width="25.17" height="90.87" rx="12.58" style="fill:#149ed9"/><rect x="270.83" y="21.5" width="25.17" height="90.87" rx="12.58" style="fill:#149ed9"/><rect x="242.09" y="36.14" width="25.17" height="57.92" rx="12.58" style="fill:#149ed9"/><g id="Logo_SysMap_Solutions" data-name="Logo SysMap Solutions"><path d="M174.31,121.41A2.28,2.28,0,0,1,176,124a.57.57,0,0,1,.23.46c0,.69-1.11,1.61-2.36,1.87-.69-.88.4-.92.07-1.28-3.31,0-5,.66-7.84,2.69v.49l1.38,1c1.41,1,2.79,1.44,3.77,2.52l.36-.23a4.68,4.68,0,0,1,1.44,3.12l-.19,2.62-.56-.13a12.17,12.17,0,0,1-4.79,3.34c-1-.42-1.57-.26-1.54.62a12.85,12.85,0,0,1-3.57.89,4,4,0,0,1-2-1.28c-1.31-.26-1.6-1.05-1.44-1.64a3.28,3.28,0,0,1-.72-1.51,2.13,2.13,0,0,1,1.09-1.7c.55.46,1.4,1.6,2,1.6a11.74,11.74,0,0,0,6.69-2.72v-.32c-.82-.79-1.47-2.23-2.06-1.84-.89-1.18-1.28-1.67-1.87-1.24a4.2,4.2,0,0,1-1.51-2.1,19,19,0,0,1-.56-3c.2-2.69,5.51-5.38,9.67-5.38a24.76,24.76,0,0,1,2.72.13Zm-8.75,19.07-1.15.5.16.23,1-.33Zm2.95-14.71c-1.18.36-2.39.85-2.43,1.37l2.43-1.34Zm6.39.52.82-.56c0,.4-.1.43-.52.79Z" style="fill:#494949"/><path d="M194.6,134a.47.47,0,0,1-.43.69l-.23-.42c-.26.06-.46.19-.26.55-.36,0-1,.3-1,.66s-.56.33-.95.42a11.48,11.48,0,0,0-1.05,1.32l-.36-.33c-.85.52-.39.88-1.28,1.31a7.46,7.46,0,0,1-1.74.36c-.09.1.3.23.27.36l-.59.2-.92-.56c-.53.33-.13,1.08-.79,1.31s-1.41.49-2.33.79a1.18,1.18,0,0,0-1.67,0,34.75,34.75,0,0,1-3.41-2.53c-.78-.62-1-2.23-1-3.8,0-8,9.94-13.11,12.4-13.11,1,0,1.4.59,2.42,1.38,0,1.5,1.61,2.72,2.95,3.63s1.71,2.5,1.71,4.27A4.75,4.75,0,0,1,194.6,134Zm-3.54-6.72c-.1-.29-.16-.49-.3-.36a.58.58,0,0,1-.36.2c-.23,0-.36-.26-.39-.26-1.74,0-4.75,2-6.13,4.16-1.57.75-2.66,2.62-3.38,4.88a9.57,9.57,0,0,0,2.33-.36l5.9-2.46a7.36,7.36,0,0,0,2.69-1.73l1.47-1.94ZM182.93,131a.83.83,0,0,0-1.15.52c0,.2.1.36.4.39Zm.13,9.11a.76.76,0,0,0-.59-.36.71.71,0,0,0-.39.19Zm4.29-2.3c0,.1-.13.33-.06.4s.39,0,.56-.07C187.85,137.86,187.68,137.76,187.35,137.76Zm1.77-.95c-.58.3-.82.46-.78.82l.95-.49ZM190,136l-.52.55.13.36.66-.39C190.21,136.45,190.14,136.09,190,136Z" style="fill:#494949"/><path d="M215.67,134.42a2.58,2.58,0,0,1-1.54.56c-.39,0-.49-.07-.56-.17-.59.59.37,1.08,2.59.2.17,0,.43.07.3.13a11.13,11.13,0,0,1-2.46,1,5.91,5.91,0,0,0-2,.42c-2.07.72-5.34,2-7.7,2.92-.43.16-1.12.82-1.51.85a12.38,12.38,0,0,1-1.64.13.63.63,0,0,1-.56-.36h-.75c-.49-.49-1.05-1.5-1.48-1.5H198c.56-5.77,6.46-14.63,9.44-18.46v-.53a2.81,2.81,0,0,1,2.79,3.05,41.29,41.29,0,0,1-2.26,5.22c-.4.68-1.45,1.67-2,2.45-.3.43-.5,1.28-.76,1.74-.36.66-1.47,1.21-1.08,2.17a29.68,29.68,0,0,1,2.92-.82,4.57,4.57,0,0,1,1.21-.2,1.37,1.37,0,0,1,1.28.62,7,7,0,0,1,1.64-.69c.46,0,.49.17.95.17a26.53,26.53,0,0,0,3.24-.89c0,.07.17.13.4.17v0a15.86,15.86,0,0,0-3.21,1.18l.32.2c1-.36,3.08-1.28,4.23-1.54a2.68,2.68,0,0,1,.89.49c.49-.2,1.34-.66,1.37-.43C219.44,133,217.34,134,215.67,134.42Zm-11.93-2.23c-.23.59-.62,1.15-.2,1.34l.59-1.24Zm8.59,3.44a39,39,0,0,0-7.64,2.79l0,.13,8.13-2.69Zm-6.69-6c-.33,0-.46.39-.46.59h.46Zm4.2,4.72.72-.4a.93.93,0,0,0-.92.13Zm6.29-1.94c-.1,0-.36-.13-.26-.16l.65-.2c.36-.1.33.1.17.17Zm.85,2.46a.34.34,0,0,1-.46-.1v0c1.94-.85,2.17-1,2.43-.79Zm1.25-2.36a2,2,0,0,0-.49-.29c.13-.1,1.27-.5,1.27-.33S218.46,132.39,218.23,132.55Z" style="fill:#494949"/><path d="M239.37,126.45c-.66-.06-1.57.43-.79,1,.23.14,0,.63-.42.59l-.46-.22c-.43.78-.95,1.83-.53,1.86l-.36.69c-.62,0-.69.85-2.72,3.35l.26.32a33.24,33.24,0,0,0,2.26-3.24.67.67,0,0,1,.07.78C232.09,140,225.34,141,223.44,141c-.23,0-.23-.1-.26-.17s0-.16-.24-.16-.19.06-.19.16.06.17-.17.17c-.91,0-1.34-.89-1.8-1.45l-.36.17a4.34,4.34,0,0,1-1.9-3.84,9.64,9.64,0,0,1,.88-3.9c1.51-3.28,4-9.18,5.18-11.93a1.64,1.64,0,0,1,1-.46c.72,0,1.74,2.69,2,3.38l.46-.33v.75c-.95,1.74-2.33,4.59-3.18,6.46a.77.77,0,0,1,0-.88c.32-.1-.14-.46-.27-.27-.78,1.15,0,1.74-.29,2.43-.13.29-.3.62-.46,1-.29-.14-.62.22-.79.55a.58.58,0,0,0,.59-.13h0c-.23.49-.49,1.12-.69,1.57-.13-.19-.17-.45.06-1l-.19-.19a3.93,3.93,0,0,0-.59,1.47c0,.23.13.36.42.4l-.36.91c6.69,0,9.67-5,12.36-10.55.1-.3.62-.13.92-.33s.16-.46-.36-.39a33.2,33.2,0,0,0,1.31-3.58c.06-.29.26-.36.52-.36s.43.27.73.49a3.53,3.53,0,0,0,.95.53,5.78,5.78,0,0,1,.26,1.67c0,.79.13,1.51.82,1.58Zm-13.84,13.38c-.42-.76-1.6-.49-1.27-.1a.59.59,0,0,0,.52.2A6.15,6.15,0,0,0,225.53,139.83Zm-.65-11.93c0,.06-.1.19-.07.23l.43.26c.23-.33.79-1.51.46-1.84Zm3,10.94c-.55.2-1.34.1-1.28.86a7.85,7.85,0,0,0,1.9-.69C228.39,138.78,228.09,138.78,227.86,138.84Zm1-.39.07.33a15.41,15.41,0,0,0,2.43-1.54C230.55,137.21,230,137.83,228.84,138.45Zm4.95-4.49c-.49.49-.91.92-.58,1.35l.91-1Z" style="fill:#494949"/><path d="M253.59,122.42c2.17-.46,4.59-1,6.1-1.18,1.41.36,2.55,1,3,2.13-.55.49-.26,1.35,0,1.84a2.48,2.48,0,0,1-.52.23l-.06-.2a1.11,1.11,0,0,0-.46-.13.22.22,0,0,0-.23.23.62.62,0,0,0,.06.26c-2,.39-4.85.13-7.57,1.31h-.46v-.36a.79.79,0,0,0-.72.39c-1.11.14-1.48.56-2.16,2.63a2.66,2.66,0,0,1-.69.85l.29.16c-.16.69-.65,2-1,2s0-.69-.23-.65c-.36.06-.4.78-.56,1.31a2.51,2.51,0,0,1,.2.95c-.16.42-.33,1.15-.56,1.15s-.13-.63-.26-.89c-.29.62-.53,1.21-.75,1.77l.26.16c.16-.29.32-.39.62-.32a48,48,0,0,0-1.54,4.88,7,7,0,0,1-2.13-.16l.13-.36c-.85-.3-.79-1.41-.92-2.69a1.3,1.3,0,0,1-.26-.69c0-.82,1.87-5.67,3.51-9.41h-2.56c-1.44,0-1.54.46-2.59.2a7.13,7.13,0,0,1-1.08-3.18,1.43,1.43,0,0,1,.46-1.08,26.26,26.26,0,0,0,6.32-.13c3.32-.69,1.87-3.81,4.92-3.81ZM249.46,131l-.33.58.2.23.26-.59Z" style="fill:#494949"/><path d="M270.11,125.44h-.36c-.89,1.24-1.41,3.54-2.92,4.36l.13.39-1.28.72c-1.28,1.84-1.83,4.1-2.55,6-.1.26-.53.78-.1.92.1,0,.32-.66.36-.76.75-1.7,1.31-4.26,2.49-5.6.46-.17.13.23.07.32-1.15,1.94-1.71,4.17-2.66,6.46a6.86,6.86,0,0,0-.72,3.61,9.69,9.69,0,0,1-1.64-.72v-1.05a1,1,0,0,0-.36.78,5.11,5.11,0,0,1-1.81-2.45c0-5.9,6.1-14,8.46-18.3a1.37,1.37,0,0,1,1-.46,4.42,4.42,0,0,1,1,.23v.79a2,2,0,0,1,1.18,1.74A21,21,0,0,1,270.11,125.44Zm-7.67,13.08-.36.88c0,.1.06.43.26.1l.46-1.15C262.34,137.89,262.47,138.42,262.44,138.52Z" style="fill:#494949"/><path d="M288.3,134a.47.47,0,0,1-.43.69l-.23-.42c-.26.06-.46.19-.26.55-.36,0-.95.3-.95.66s-.56.33-.95.42a11.48,11.48,0,0,0-1.05,1.32l-.36-.33c-.85.52-.39.88-1.28,1.31a7.49,7.49,0,0,1-1.73.36c-.1.1.29.23.26.36l-.59.2-.92-.56c-.52.33-.13,1.08-.79,1.31s-1.41.49-2.33.79a1.18,1.18,0,0,0-1.67,0,34.75,34.75,0,0,1-3.41-2.53c-.78-.62-1-2.23-1-3.8,0-8,9.93-13.11,12.39-13.11,1,0,1.4.59,2.42,1.38,0,1.5,1.61,2.72,2.95,3.63s1.71,2.5,1.71,4.27A4.75,4.75,0,0,1,288.3,134Zm-3.54-6.72c-.1-.29-.16-.49-.3-.36a.58.58,0,0,1-.36.2c-.23,0-.36-.26-.39-.26-1.74,0-4.75,2-6.13,4.16-1.57.75-2.66,2.62-3.37,4.88a9.56,9.56,0,0,0,2.32-.36l5.9-2.46a7.36,7.36,0,0,0,2.69-1.73l1.47-1.94ZM276.63,131a.83.83,0,0,0-1.15.52c0,.2.1.36.4.39Zm.13,9.11a.76.76,0,0,0-.59-.36.71.71,0,0,0-.39.19Zm4.3-2.3c0,.1-.14.33-.07.4s.39,0,.56-.07C281.55,137.86,281.38,137.76,281.06,137.76Zm1.77-.95c-.59.3-.82.46-.79.82l.95-.49Zm.91-.78-.52.55.13.36.66-.39C283.91,136.45,283.84,136.09,283.74,136Z" style="fill:#494949"/><path d="M313.21,121.9a3.73,3.73,0,0,1,1.7-.43,4.53,4.53,0,0,1,2.66.53l-.66.45.07.14a3.06,3.06,0,0,0,1-.33l.91,1a19.91,19.91,0,0,0-6.42,5.34c-.2.27-.33-.13-.53,0-.06,1.18-.75,1.81-1.53,3-.17.3-.1.72-.3,1.18,0,.2-.49.4-.59.69-.82,2.53-1.93,5.15-3,7.84l-1.48-.69-.19.46c-2.1-.56-2.3-1.38-2.6-3.58a21.8,21.8,0,0,0-.06-3.05c-.79-2.29,0-3.27-.23-4.94l-.16-1.28a5.82,5.82,0,0,0-3,2.85l.1.52c-1.64,3.08-3.12,7.35-4.59,9.31h-.92c-.95,0-1.47-2.19-1.87-2.39l-.19-1.44a3,3,0,0,1,.36-2c2.32-5.64,6.06-9.05,8.65-11.7,1,.36,3.67,2,4.13,3.24a41.13,41.13,0,0,1,1.11,4.39c2.23-3.87,5.51-8.68,6.23-8.95l.69-.09a34.34,34.34,0,0,0-4.26,5.5c-.29.49-.43.69-.36.72l.2.13A42.17,42.17,0,0,1,313.21,121.9Zm-13,2.29-.72.76c.39.32.75-.33,1-.56ZM310,134.62l-.3-.2c0-.46.07-1.08.46-.92Zm2.59-7.61c-.27.39-.79,1.08-.46,1.25l.68-1C312.88,127.11,312.65,126.91,312.59,127Zm-.17-3.47.56-.73-.26-.13a2.36,2.36,0,0,0-.56.69C312.19,123.44,312.29,123.57,312.42,123.54Zm1,2.32-.66.86c.2,0,.26,0,.3.16l.59-.85C313.73,126,313.6,125.67,313.44,125.86Zm2.49-2.72.06.3c.33-.23.63-.26.56-.76Z" style="fill:#494949"/><path d="M331,121.41a2.28,2.28,0,0,1,1.67,2.58.59.59,0,0,1,.24.46c0,.69-1.12,1.61-2.37,1.87-.68-.88.4-.92.07-1.28-3.31,0-5,.66-7.83,2.69v.49l1.37,1c1.41,1,2.79,1.44,3.77,2.52l.36-.23a4.74,4.74,0,0,1,1.45,3.12l-.2,2.62-.56-.13a12.17,12.17,0,0,1-4.79,3.34c-1-.42-1.57-.26-1.54.62a12.85,12.85,0,0,1-3.57.89,4,4,0,0,1-2-1.28c-1.31-.26-1.61-1.05-1.44-1.64a3.22,3.22,0,0,1-.73-1.51,2.13,2.13,0,0,1,1.09-1.7c.55.46,1.41,1.6,2,1.6a11.69,11.69,0,0,0,6.68-2.72v-.32c-.81-.79-1.47-2.23-2.06-1.84-.89-1.18-1.28-1.67-1.87-1.24a4.26,4.26,0,0,1-1.51-2.1,19,19,0,0,1-.56-3c.2-2.69,5.51-5.38,9.68-5.38A24.88,24.88,0,0,1,331,121Zm-8.75,19.07-1.15.5.17.23,1-.33Zm2.95-14.71c-1.18.36-2.39.85-2.42,1.37l2.42-1.34Zm6.39.52.82-.56c0,.4-.1.43-.52.79Z" style="fill:#494949"/><circle cx="271.92" cy="115.89" r="3.46" style="fill:#149ed9"/></g></svg>